<?xml version="1.0"?><svg width="940" height="720" xmlns="http://www.w3.org/2000/svg">
 <title>olive leaf gold</title>
 <defs>
  <filter id="filter3327">
   <feGaussianBlur id="feGaussianBlur3329" stdDeviation="6.130778"/>
  </filter>
 </defs>
 <metadata id="metadata7">image/svg+xmlImperatores Romani2006.07.25Piotr Michal JaworskiPiotr Michal JaworskiPiotr Michal Jaworskipiomrex (AT-) konin.lm.pl</metadata>
 <g>
  <title>Layer 1</title>
  <g id="layer1">
   <path fill="#ffc156" fill-rule="evenodd" stroke-width="1.000001px" filter="url(#filter3327)" id="path3159" d="m231.282074,16.845276c-47.174438,19.690018 -92.151154,46.941818 -84.304474,103.697861c60.925323,-3.515076 75.221466,-53.111969 84.304474,-103.697861zm475.91629,0c9.083008,50.585892 23.37915,100.182785 84.304504,103.697861c7.846619,-56.756042 -37.130005,-84.007843 -84.304504,-103.697861zm-596.735863,22.758835c-24.975845,44.60199 -43.5914,93.784607 -2.397881,133.608276c45.777222,-40.357178 26.46138,-88.194733 2.397881,-133.608276zm717.555443,0c-24.063477,45.413544 -43.421448,93.251099 2.355835,133.608276c41.193481,-39.823669 22.620056,-89.006287 -2.355835,-133.608276zm-612.763824,73.745392c-49.017181,14.506714 -96.650024,36.751526 -94.947693,94.022186c60.950317,3.052185 80.481415,-44.705231 94.947693,-94.022186zm507.930145,0c14.466248,49.316956 33.997375,97.074371 94.947693,94.022186c1.702332,-57.27066 -45.930542,-79.515472 -94.947693,-94.022186zm-666.947536,28.395935c-15.399101,48.744263 -23.60141,100.707031 24.820179,131.336594c36.629021,-48.81163 7.96328,-91.755264 -24.820179,-131.336594zm825.964931,0c-32.783447,39.581329 -61.449219,82.524963 -24.82019,131.336594c48.42157,-30.629562 40.219238,-82.592331 24.82019,-131.336594zm-718.607147,64.826935c-43.437958,26.949524 -83.502617,60.988541 -66.720001,115.771439c59.588623,-13.170166 65.806519,-64.384644 66.720001,-115.771439zm611.291412,0c0.913452,51.386795 7.131409,102.601273 66.720032,115.771439c16.782593,-54.782898 -23.282043,-88.821915 -66.720032,-115.771439zm-758.866287,46.190765c2.620979,51.05162 13.126102,102.622665 69.202011,114.383163c17.244652,-58.539551 -24.645912,-88.767029 -69.202011,-114.383163zm906.399124,0c-44.556091,25.616135 -86.404602,55.843613 -69.159973,114.383163c56.075928,-11.760498 66.53894,-63.331543 69.159973,-114.383163zm-763.199341,41.310898c-36.31794,35.973999 -67.764664,78.155151 -39.16539,127.802856c55.139206,-26.151794 49.757156,-77.511292 39.16539,-127.802856zm620.041626,0c-10.591797,50.291565 -15.973877,101.651062 39.165405,127.802856c28.599243,-49.647705 -2.847473,-91.828857 -39.165405,-127.802856zm-775.903908,65.415894c21.85849,46.209656 51.15332,89.855042 107.483971,79.382507c-6.339249,-60.696533 -56.53101,-72.657288 -107.483971,-79.382507zm931.766151,0c-50.952942,6.72522 -101.186768,18.685974 -107.526001,79.382507c56.330627,10.472534 85.667542,-33.172852 107.526001,-79.382507zm-757.351837,25.955994c-31.960159,39.895935 -58.36911,85.374084 -24.2733,131.420715c51.782303,-32.293335 40.553757,-82.672607 24.2733,-131.420715zm582.937531,0c-16.280457,48.748108 -27.551086,99.12738 24.231262,131.420715c34.095764,-46.046631 7.728882,-91.52478 -24.231262,-131.420715zm-542.972839,56.876099c-24.00592,45.13147 -41.539856,94.72644 0.504807,133.65033c44.894119,-41.337341 24.534653,-88.767578 -0.504807,-133.65033zm503.008179,0c-25.03949,44.882751 -45.44104,92.312988 -0.546875,133.65033c42.044617,-38.923889 24.552795,-88.51886 0.546875,-133.65033zm-701.485443,0.925476c27.19101,43.28717 61.461487,83.176514 116.149994,66.088989c-13.50174,-59.514404 -64.758957,-65.461792 -116.149994,-66.088989zm899.962677,0c-51.390991,0.627197 -102.690247,6.574585 -116.192078,66.088989c54.688538,17.087524 89.001099,-22.801819 116.192078,-66.088989zm-656.89325,52.164429c-8.377716,50.427612 -9.1763,102.997009 43.077728,126.498779c29.386444,-53.485474 -5.044586,-91.931274 -43.077728,-126.498779zm413.781738,0c-38.033081,34.567505 -72.464111,73.013306 -43.077698,126.498779c52.254028,-23.50177 51.455505,-76.071167 43.077698,-126.498779zm-561.440735,27.260132c-15.131569,0.158752 -31.05687,2.455994 -46.863853,5.300598c34.886368,37.364014 76.112587,70.030701 126.582893,42.909424c-16.852631,-38.422363 -46.429581,-48.559326 -79.71904,-48.210022zm704.59845,0c-31.438049,0.61499 -59.131165,11.534119 -75.217712,48.210022c50.470276,27.121277 91.696533,-5.54541 126.582886,-42.909424c-17.387695,-3.129028 -34.897583,-5.622742 -51.365173,-5.300598zm-494.468323,39.375732c18.691376,47.578979 44.980133,93.140747 101.888916,86.492004c-2.230225,-60.985962 -51.505737,-76.344849 -101.888916,-86.492004zm288.881592,0c-50.383179,10.147156 -99.700745,25.506042 -101.930969,86.492004c56.908752,6.648743 83.239563,-38.913025 101.930969,-86.492004zm-411.972839,23.8526c-21.540619,0.457092 -44.42215,8.086548 -66.88826,16.785156c41.356094,30.046753 88.039688,54.272827 132.430344,18.047241c-18.431702,-26.671265 -41.129395,-35.350403 -65.542084,-34.832397zm530.478638,0c-22.676575,0.624329 -43.718994,9.828064 -60.998718,34.832397c44.390686,36.225586 91.07428,11.999512 132.430359,-18.047241c-22.466125,-8.698608 -45.347656,-16.328064 -66.888306,-16.785156c-1.525757,-0.032349 -3.031555,-0.041626 -4.543335,0zm-433.385468,45.728027c-28.572662,0.540649 -55.89502,18.522095 -81.948654,38.239868c48.021683,17.522827 99.579758,28.016418 132.304153,-19.014771c-16.210419,-13.315247 -32.086273,-18.900085 -47.57901,-19.225098c-0.924286,-0.019409 -1.854797,-0.017456 -2.776489,0zm338.059174,0c-15.492737,0.325012 -31.326538,5.909851 -47.536926,19.225098c32.724365,47.031189 84.240417,36.537598 132.262085,19.014771c-26.894104,-20.353821 -55.148071,-38.860352 -84.725159,-38.239868zm-167.641327,16.743103c-9.75824,0 -17.668579,7.910339 -17.66861,17.668579c0,9.758301 7.91037,17.710693 17.66861,17.710693c9.75824,0 17.66861,-7.952393 17.66861,-17.710693c0,-9.75824 -7.910339,-17.668579 -17.66861,-17.668579zm-75.217743,14.681763c-31.225586,0.038208 -59.168304,21.805786 -85.440308,45.433533c49.33078,13.401794 101.609955,19.465576 130.242828,-30.162842c-15.707031,-10.81604 -30.6091,-15.288025 -44.802521,-15.270691zm150.435486,0c-14.19342,-0.017334 -29.053467,4.454651 -44.760437,15.270691c28.632813,49.628418 80.869995,43.564636 130.200684,30.162842c-26.271973,-23.627747 -54.214661,-45.395325 -85.440247,-45.433533z"/>
   <g transform="matrix(1.34618, 0, 0, 1.34618, -138.356, -200.687)" id="g3044">
    <g id="g2882" transform="matrix(0.50592, 0, 0, 0.50592, 182.655, 465.192)">
     <g transform="matrix(0.573143, -0.904671, 1.00078, 0.44482, -415.047, 619.463)" id="g2770">
      <path fill="#ffc156" fill-rule="evenodd" stroke-width="1.363094px" d="m573.294006,572.672791c15.540466,-82.642487 -46.435547,-108.371552 -111.469238,-127.192596c10.795288,66.193298 32.502197,130.407928 111.469238,127.192596z" id="path1872"/>
      <path fill="#ffc156" fill-rule="evenodd" stroke-width="1.363094px" d="m572.362061,571.212891l-109.290497,-123.7099c13.272308,70.379883 34.371552,126.760559 109.290497,123.7099z" id="path1883"/>
     </g>
     <g transform="matrix(1.06794, -0.0801205, 0.240445, 1.06847, -65.9312, -10.494)" id="g2782">
      <path fill="#ffc156" fill-rule="evenodd" stroke-width="1.363094px" d="m425.714722,333.579285c15.540466,-82.642456 -46.435577,-108.371521 -111.469238,-127.192566c10.795227,66.193298 32.502136,130.407898 111.469238,127.192566z" id="path2784"/>
      <path fill="#ffc156" fill-rule="evenodd" stroke-width="1.363094px" d="m424.782776,332.119385l-109.290527,-123.709869c13.272339,70.379852 34.371521,126.760529 109.290527,123.709869z" id="path2786"/>
     </g>
     <g transform="matrix(0.647546, -0.853, 0.959612, 0.527804, -537.823, 514.566)" id="g2788">
      <path fill="#ffc156" fill-rule="evenodd" stroke-width="1.363094px" d="m571.024536,545.128479c15.540466,-82.642456 -46.435547,-108.371521 -111.469238,-127.192566c10.795288,66.193298 32.502197,130.407898 111.469238,127.192566z" id="path2790"/>
      <path fill="#ffc156" fill-rule="evenodd" stroke-width="1.363094px" d="m570.092651,543.668579l-109.290558,-123.7099c13.272308,70.379883 34.371552,126.760559 109.290558,123.7099z" id="path2792"/>
     </g>
     <g transform="matrix(0.957678, 0.479351, -0.34202, 1.04041, 150.487, -161.529)" id="g2794">
      <path fill="#ffc156" fill-rule="evenodd" stroke-width="1.363094px" d="m253.850525,300.447235c15.540466,-82.642456 -46.435562,-108.371521 -111.469238,-127.192566c10.795258,66.193298 32.502167,130.407898 111.469238,127.192566z" id="path2796"/>
      <path fill="#ffc156" fill-rule="evenodd" stroke-width="1.363094px" d="m252.918594,298.987335l-109.290527,-123.709869c13.272324,70.379852 34.371536,126.760529 109.290527,123.709869z" id="path2798"/>
     </g>
     <g transform="matrix(0.857054, -0.64217, 0.777588, 0.771226, -591.364, 267.296)" id="g2800">
      <path fill="#ffc156" fill-rule="evenodd" stroke-width="1.363094px" d="m546.637634,459.970978c15.540466,-82.642456 -46.435577,-108.371521 -111.469238,-127.192566c10.795227,66.193298 32.502136,130.407898 111.469238,127.192566z" id="path2802"/>
      <path fill="#ffc156" fill-rule="evenodd" stroke-width="1.363094px" d="m545.705688,458.511078l-109.290527,-123.709869c13.272339,70.379852 34.371521,126.760529 109.290527,123.709869z" id="path2804"/>
     </g>
     <g transform="matrix(0.755076, 0.759463, -0.655643, 0.877249, 268.126, -190.625)" id="g2806">
      <path fill="#ffc156" fill-rule="evenodd" stroke-width="1.363094px" d="m144.098099,326.525177c15.540466,-82.642456 -46.435562,-108.371521 -111.469238,-127.192566c10.795258,66.193298 32.502167,130.407898 111.469238,127.192566z" id="path2808"/>
      <path fill="#ffc156" fill-rule="evenodd" stroke-width="1.363094px" d="m143.166168,325.065277l-109.290527,-123.709869c13.272324,70.379852 34.371536,126.760529 109.290527,123.709869z" id="path2810"/>
     </g>
     <g transform="matrix(0.963548, -0.467438, 0.616708, 0.905043, -621.137, 68.8432)" id="g2812">
      <path fill="#ffc156" fill-rule="evenodd" stroke-width="1.363094px" d="m515.627747,408.829102c15.540466,-82.642456 -46.435547,-108.371521 -111.469238,-127.192566c10.795288,66.193298 32.502197,130.407898 111.469238,127.192566z" id="path2814"/>
      <path fill="#ffc156" fill-rule="evenodd" stroke-width="1.363094px" d="m514.695801,407.369202l-109.290497,-123.7099c13.272308,70.379883 34.371552,126.760559 109.290497,123.7099z" id="path2816"/>
     </g>
     <g transform="matrix(0.601115, 0.886332, -0.806975, 0.740424, 304.607, -220.139)" id="g2818">
      <path fill="#ffc156" fill-rule="evenodd" stroke-width="1.363094px" d="m84.384979,356.340668c15.540466,-82.642456 -46.435562,-108.371521 -111.469238,-127.192566c10.795258,66.193298 32.502167,130.407898 111.469238,127.192566z" id="path2820"/>
      <path fill="#ffc156" fill-rule="evenodd" stroke-width="1.363094px" d="m83.453049,354.880768l-109.290527,-123.709869c13.272324,70.379852 34.371536,126.760529 109.290527,123.709869z" id="path2822"/>
     </g>
     <g transform="matrix(1.03456, -0.276788, 0.434429, 1.00534, -608.74, -129.315)" id="g2824">
      <path fill="#ffc156" fill-rule="evenodd" stroke-width="1.363094px" d="m474.525208,366.108246c15.540466,-82.642456 -46.435547,-108.371521 -111.469238,-127.192566c10.795258,66.193298 32.502167,130.407898 111.469238,127.192566z" id="path2826"/>
      <path fill="#ffc156" fill-rule="evenodd" stroke-width="1.363094px" d="m473.593262,364.648346l-109.290527,-123.709869c13.272339,70.379852 34.371552,126.760529 109.290527,123.709869z" id="path2828"/>
     </g>
     <g transform="matrix(0.746779, 0.767624, -0.665138, 0.870071, 125.857, -397.645)" id="g2830">
      <g transform="matrix(0.915872, 0.283064, -0.296023, 1.00037, 202.003, -80.531)" id="g2878">
       <path fill="#ffc156" fill-rule="evenodd" stroke-width="1.363094px" id="path2832" d="m50.072403,379.537018c15.540466,-82.642456 -46.435562,-108.371521 -111.469238,-127.192566c10.795258,66.193298 32.502167,130.407898 111.469238,127.192566z"/>
       <path fill="#ffc156" fill-rule="evenodd" stroke-width="1.363094px" id="path2834" d="m49.140472,378.077118l-109.290527,-123.709869c13.272324,70.379852 34.371536,126.760529 109.290527,123.709869z"/>
      </g>
     </g>
     <g transform="matrix(1.06011, -0.15198, 0.311976, 1.04981, -573.176, -289.857)" id="g2836">
      <path fill="#ffc156" fill-rule="evenodd" stroke-width="1.363094px" d="m444.250366,344.201141c15.540466,-82.642456 -46.435577,-108.371521 -111.469238,-127.192566c10.795227,66.193298 32.502136,130.407898 111.469238,127.192566z" id="path2838"/>
      <path fill="#ffc156" fill-rule="evenodd" stroke-width="1.363094px" d="m443.31842,342.741241l-109.290527,-123.709869c13.272339,70.379852 34.371521,126.760529 109.290527,123.709869z" id="path2840"/>
     </g>
     <g transform="matrix(0.271022, 1.03609, -1.00774, 0.428823, 425.16, -343.1)" id="g2842">
      <path fill="#ffc156" fill-rule="evenodd" stroke-width="1.363094px" d="m-9.95752,434.478424c15.540466,-82.642456 -46.435562,-108.371521 -111.469238,-127.192566c10.795258,66.193298 32.502167,130.407898 111.469238,127.192566z" id="path2844"/>
      <path fill="#ffc156" fill-rule="evenodd" stroke-width="1.363094px" d="m-10.88945,433.018524l-109.290527,-123.709869c13.272324,70.379852 34.371536,126.760529 109.290527,123.709869z" id="path2846"/>
     </g>
     <g transform="matrix(1.03814, 0.263036, -0.111168, 1.08953, -337.728, -516.595)" id="g2848">
      <path fill="#ffc156" fill-rule="evenodd" stroke-width="1.363094px" d="m326.384613,302.307129c15.540466,-82.642456 -46.435577,-108.371521 -111.469238,-127.192566c10.795258,66.193298 32.502167,130.407898 111.469238,127.192566z" id="path2850"/>
      <path fill="#ffc156" fill-rule="evenodd" stroke-width="1.363094px" d="m325.452667,300.847229l-109.290527,-123.709869c13.272339,70.379852 34.371552,126.760529 109.290527,123.709869z" id="path2852"/>
     </g>
     <g transform="matrix(-0.0125355, 1.07087, -1.08526, 0.147144, 574.432, -341.583)" id="g2854">
      <path fill="#ffc156" fill-rule="evenodd" stroke-width="1.363094px" d="m-65.14711,512.513489c15.540466,-82.642487 -46.435562,-108.371552 -111.469238,-127.192596c10.795258,66.193298 32.502167,130.407928 111.469238,127.192596z" id="path2856"/>
      <path fill="#ffc156" fill-rule="evenodd" stroke-width="1.363094px" d="m-66.079041,511.053558l-109.290527,-123.709869c13.272324,70.379852 34.371536,126.760559 109.290527,123.709869z" id="path2858"/>
     </g>
     <g transform="matrix(0.880588, 0.6095, -0.485195, 0.981844, -70.3676, -666.837)" id="g2860">
      <path fill="#ffc156" fill-rule="evenodd" stroke-width="1.363094px" d="m205.597351,307.630005c15.540466,-82.642456 -46.435562,-108.371521 -111.469238,-127.192566c10.795258,66.193298 32.502167,130.407898 111.469238,127.192566z" id="path2862"/>
      <path fill="#ffc156" fill-rule="evenodd" stroke-width="1.363094px" d="m204.665421,306.170105l-109.290527,-123.709869c13.272324,70.379852 34.371536,126.760529 109.290527,123.709869z" id="path2864"/>
     </g>
     <g transform="matrix(0.102611, 1.06602, -1.06316, 0.262912, 572.881, -541.285)" id="g2866">
      <path fill="#ffc156" fill-rule="evenodd" stroke-width="1.363094px" d="m-45.290085,479.746765c15.540466,-82.642456 -46.435562,-108.371521 -111.469238,-127.192566c10.795258,66.193298 32.502167,130.407898 111.469238,127.192566z" id="path2868"/>
      <path fill="#ffc156" fill-rule="evenodd" stroke-width="1.363094px" d="m-46.222015,478.286865l-109.290527,-123.7099c13.272324,70.379883 34.371536,126.760559 109.290527,123.7099z" id="path2870"/>
     </g>
     <g transform="matrix(0.738484, 0.775608, -0.674452, 0.862871, 122.126, -776.622)" id="g2872">
      <path fill="#ffc156" fill-rule="evenodd" stroke-width="1.363094px" d="m136.981888,329.450867c15.540466,-82.642456 -46.435562,-108.371521 -111.469238,-127.192566c10.795258,66.193298 32.502167,130.407898 111.469238,127.192566z" id="path2874"/>
      <path fill="#ffc156" fill-rule="evenodd" stroke-width="1.363094px" d="m136.049957,327.990967l-109.290527,-123.709869c13.272324,70.379852 34.371536,126.760529 109.290527,123.709869z" id="path2876"/>
     </g>
    </g>
    <g id="g2936" transform="matrix(-0.50592, 0, 0, 0.50592, 583.799, 465.192)">
     <g transform="matrix(0.573143, -0.904671, 1.00078, 0.44482, -415.047, 619.463)" id="g2938">
      <path fill="#ffc156" fill-rule="evenodd" stroke-width="1.363094px" d="m469.857208,362.303894c15.540466,-82.642456 -46.435577,-108.371521 -111.469238,-127.192566c10.795258,66.193298 32.502167,130.407898 111.469238,127.192566z" id="path2940"/>
      <path fill="#ffc156" fill-rule="evenodd" stroke-width="1.363094px" d="m468.925293,360.843994l-109.290527,-123.709869c13.272308,70.379852 34.371521,126.760529 109.290527,123.709869z" id="path2942"/>
     </g>
     <g transform="matrix(1.06794, -0.0801205, 0.240445, 1.06847, -65.9312, -10.494)" id="g2944">
      <path fill="#ffc156" fill-rule="evenodd" stroke-width="1.363094px" d="m177.257553,314.948425c15.540466,-82.642456 -46.435562,-108.371521 -111.469238,-127.192566c10.795258,66.193298 32.502167,130.407898 111.469238,127.192566z" id="path2946"/>
      <path fill="#ffc156" fill-rule="evenodd" stroke-width="1.363094px" d="m176.325623,313.488525l-109.290527,-123.709869c13.272324,70.379852 34.371536,126.760529 109.290527,123.709869z" id="path2948"/>
     </g>
     <g transform="matrix(0.647546, -0.853, 0.959612, 0.527804, -537.823, 514.566)" id="g2950">
      <path fill="#ffc156" fill-rule="evenodd" stroke-width="1.363094px" d="m448.291382,346.775726c15.540466,-82.642456 -46.435547,-108.371521 -111.469238,-127.192566c10.795288,66.193298 32.502197,130.407898 111.469238,127.192566z" id="path2952"/>
      <path fill="#ffc156" fill-rule="evenodd" stroke-width="1.363094px" d="m447.359467,345.315826l-109.290527,-123.709869c13.272308,70.379852 34.371552,126.760529 109.290527,123.709869z" id="path2954"/>
     </g>
     <g transform="matrix(0.957678, 0.479351, -0.34202, 1.04041, 150.487, -161.529)" id="g2956">
      <path fill="#ffc156" fill-rule="evenodd" stroke-width="1.363094px" d="m11.918106,411.913452c15.540466,-82.642456 -46.435562,-108.371521 -111.469238,-127.192566c10.795258,66.193298 32.502167,130.407898 111.469238,127.192566z" id="path2958"/>
      <path fill="#ffc156" fill-rule="evenodd" stroke-width="1.363094px" d="m10.986176,410.453552l-109.290527,-123.7099c13.272324,70.379883 34.371536,126.760559 109.290527,123.7099z" id="path2960"/>
     </g>
     <g transform="matrix(0.857054, -0.64217, 0.777588, 0.771226, -591.364, 267.296)" id="g2962">
      <path fill="#ffc156" fill-rule="evenodd" stroke-width="1.363094px" d="m367.300171,310.643616c15.540466,-82.642456 -46.435577,-108.371521 -111.469254,-127.192566c10.795242,66.193298 32.502151,130.407898 111.469254,127.192566z" id="path2964"/>
      <path fill="#ffc156" fill-rule="evenodd" stroke-width="1.363094px" d="m366.368225,309.183716l-109.290527,-123.709869c13.272339,70.379852 34.371521,126.760529 109.290527,123.709869z" id="path2966"/>
     </g>
     <g transform="matrix(0.755076, 0.759463, -0.655643, 0.877249, 268.126, -190.625)" id="g2968">
      <path fill="#ffc156" fill-rule="evenodd" stroke-width="1.363094px" d="m-59.893417,503.127258c15.540466,-82.642456 -46.435562,-108.371521 -111.469238,-127.192566c10.795258,66.193298 32.502167,130.407898 111.469238,127.192566z" id="path2970"/>
      <path fill="#ffc156" fill-rule="evenodd" stroke-width="1.363094px" d="m-60.825348,501.667358l-109.290527,-123.709869c13.272324,70.379852 34.371536,126.760529 109.290527,123.709869z" id="path2972"/>
     </g>
     <g transform="matrix(0.963548, -0.467438, 0.616708, 0.905043, -621.137, 68.8432)" id="g2974">
      <path fill="#ffc156" fill-rule="evenodd" stroke-width="1.363094px" d="m305.172974,300.133087c15.540466,-82.642456 -46.435577,-108.371521 -111.469238,-127.192566c10.795258,66.193298 32.502167,130.407898 111.469238,127.192566z" id="path2976"/>
      <path fill="#ffc156" fill-rule="evenodd" stroke-width="1.363094px" d="m304.241028,298.673187l-109.290527,-123.709869c13.272339,70.379852 34.371552,126.760529 109.290527,123.709869z" id="path2978"/>
     </g>
     <g transform="matrix(0.601115, 0.886332, -0.806975, 0.740424, 304.607, -220.139)" id="g2980">
      <path fill="#ffc156" fill-rule="evenodd" stroke-width="1.363094px" d="m-87.789658,562.444031c15.540466,-82.642456 -46.435562,-108.371521 -111.469238,-127.192566c10.795258,66.193298 32.502167,130.407898 111.469238,127.192566z" id="path2982"/>
      <path fill="#ffc156" fill-rule="evenodd" stroke-width="1.363094px" d="m-88.721588,560.984131l-109.290527,-123.709869c13.272324,70.379852 34.371536,126.760529 109.290527,123.709869z" id="path2984"/>
     </g>
     <g transform="matrix(1.03456, -0.276788, 0.434429, 1.00534, -608.74, -129.315)" id="g2986">
      <path fill="#ffc156" fill-rule="evenodd" stroke-width="1.363094px" d="m240.748581,301.745361c15.540482,-82.642456 -46.435562,-108.371521 -111.469238,-127.192566c10.795258,66.193298 32.502167,130.407898 111.469238,127.192566z" id="path2988"/>
      <path fill="#ffc156" fill-rule="evenodd" stroke-width="1.363094px" d="m239.81665,300.285461l-109.290527,-123.709869c13.272324,70.379852 34.371536,126.760529 109.290527,123.709869z" id="path2990"/>
     </g>
     <g transform="matrix(0.746779, 0.767624, -0.665138, 0.870071, 125.857, -397.645)" id="g2992">
      <g transform="matrix(0.915872, 0.283064, -0.296023, 1.00037, 202.003, -80.531)" id="g2994">
       <path fill="#ffc156" fill-rule="evenodd" stroke-width="1.363094px" id="path2996" d="m-99.484085,600.289124c15.540466,-82.642456 -46.435562,-108.371521 -111.469238,-127.192566c10.795258,66.193298 32.502167,130.407898 111.469238,127.192566z"/>
       <path fill="#ffc156" fill-rule="evenodd" stroke-width="1.363094px" id="path2998" d="m-100.416016,598.829224l-109.290527,-123.709869c13.272324,70.379852 34.371536,126.760529 109.290527,123.709869z"/>
      </g>
     </g>
     <g transform="matrix(1.06011, -0.15198, 0.311976, 1.04981, -573.176, -289.857)" id="g3000">
      <path fill="#ffc156" fill-rule="evenodd" stroke-width="1.363094px" d="m200.13266,308.860443c15.540466,-82.642456 -46.435562,-108.371521 -111.469238,-127.192566c10.795258,66.193298 32.502167,130.407898 111.469238,127.192566z" id="path3002"/>
      <path fill="#ffc156" fill-rule="evenodd" stroke-width="1.363094px" d="m199.200729,307.400543l-109.290527,-123.709869c13.272324,70.379852 34.371536,126.760529 109.290527,123.709869z" id="path3004"/>
     </g>
     <g transform="matrix(0.271022, 1.03609, -1.00774, 0.428823, 425.16, -343.1)" id="g3006">
      <path fill="#ffc156" fill-rule="evenodd" stroke-width="1.363094px" d="m-109.673752,675.405396c15.540466,-82.642456 -46.435562,-108.371521 -111.469238,-127.192566c10.795258,66.193298 32.502167,130.407898 111.469238,127.192566z" id="path3008"/>
      <path fill="#ffc156" fill-rule="evenodd" stroke-width="1.363094px" d="m-110.605682,673.945496l-109.290527,-123.7099c13.272324,70.379883 34.371536,126.760559 109.290527,123.7099z" id="path3010"/>
     </g>
     <g transform="matrix(1.03814, 0.263036, -0.111168, 1.08953, -337.728, -516.595)" id="g3012">
      <path fill="#ffc156" fill-rule="evenodd" stroke-width="1.363094px" d="m73.030151,363.472351c15.540466,-82.642456 -46.435562,-108.371521 -111.469238,-127.192566c10.795258,66.193298 32.502167,130.407898 111.469238,127.192566z" id="path3014"/>
      <path fill="#ffc156" fill-rule="evenodd" stroke-width="1.363094px" d="m72.098221,362.012451l-109.290527,-123.709869c13.272324,70.379852 34.371536,126.760529 109.290527,123.709869z" id="path3016"/>
     </g>
     <g transform="matrix(-0.0125355, 1.07087, -1.08526, 0.147144, 574.432, -341.583)" id="g3018">
      <path fill="#ffc156" fill-rule="evenodd" stroke-width="1.363094px" d="m-99.363266,761.52832c15.540466,-82.642456 -46.435562,-108.37146 -111.469238,-127.192505c10.795258,66.193237 32.502167,130.407837 111.469238,127.192505z" id="path3020"/>
      <path fill="#ffc156" fill-rule="evenodd" stroke-width="1.363094px" d="m-100.295197,760.068481l-109.290527,-123.7099c13.272324,70.379822 34.371536,126.760559 109.290527,123.7099z" id="path3022"/>
     </g>
     <g transform="matrix(0.880588, 0.6095, -0.485195, 0.981844, -70.3676, -666.837)" id="g3024">
      <path fill="#ffc156" fill-rule="evenodd" stroke-width="1.363094px" d="m-22.716171,449.360352c15.540466,-82.642456 -46.435562,-108.371521 -111.469238,-127.192566c10.795258,66.193298 32.502167,130.407898 111.469238,127.192566z" id="path3026"/>
      <path fill="#ffc156" fill-rule="evenodd" stroke-width="1.363094px" d="m-23.648102,447.900452l-109.290527,-123.709869c13.272324,70.379852 34.371536,126.760529 109.290527,123.709869z" id="path3028"/>
     </g>
     <g transform="matrix(0.102611, 1.06602, -1.06316, 0.262912, 572.881, -541.285)" id="g3030">
      <path fill="#ffc156" fill-rule="evenodd" stroke-width="1.363094px" d="m-106.426376,727.633972c15.540466,-82.642456 -46.435562,-108.371521 -111.469238,-127.192566c10.795258,66.193298 32.502167,130.407898 111.469238,127.192566z" id="path3032"/>
      <path fill="#ffc156" fill-rule="evenodd" stroke-width="1.363094px" d="m-107.358307,726.174072l-109.290527,-123.7099c13.272324,70.379883 34.371536,126.760559 109.290527,123.7099z" id="path3034"/>
     </g>
     <g transform="matrix(0.738484, 0.775608, -0.674452, 0.862871, 122.126, -776.622)" id="g3036">
      <path fill="#ffc156" fill-rule="evenodd" stroke-width="1.363094px" d="m-63.666122,509.807159c15.540466,-82.642456 -46.435562,-108.371521 -111.469238,-127.192566c10.795258,66.193298 32.502167,130.407928 111.469238,127.192566z" id="path3038"/>
      <path fill="#ffc156" fill-rule="evenodd" stroke-width="1.363094px" d="m-64.598053,508.34726l-109.290527,-123.709869c13.272324,70.379852 34.371536,126.760529 109.290527,123.709869z" id="path3040"/>
     </g>
    </g>
    <path fill="#ffc156" fill-rule="nonzero" stroke-width="0.849474" stroke-linecap="round" stroke-miterlimit="4" stroke-dashoffset="0" id="path3042" d="m464.612122,635.961792a13.13198,13.131983 0 1 1 -26.263977,0a13.13198,13.131983 0 1 1 26.263977,0z"/>
   </g>
  </g>
 </g>
</svg>